<svg width="24" height="24" viewBox="0 0 24 24" fill="none" xmlns="http://www.w3.org/2000/svg">
    <path
        d="M7.15894 22.4486C6.01326 21.8842 5.15276 21.032 4.58148 19.8967C4.50611 19.7469 4.42803 19.6696 4.2579 19.6523C2.62308 19.4855 1.66636 18.3914 0.823917 17.149C0.423268 16.5581 0.126835 15.9201 0.0266174 15.2069C0.00132109 15.0269 -0.00822403 14.8403 0.0080212 14.6596C0.0701957 13.9683 0.567565 13.5681 1.31244 13.663C1.65918 13.7071 1.99642 13.8528 2.32799 13.9784C2.61648 14.0878 2.89094 14.2337 3.22421 14.3878C3.20892 14.2698 3.21489 14.2245 3.19714 14.1922C2.7561 13.3874 2.58636 12.5084 2.49566 11.6113C2.39454 10.6113 2.32476 9.60295 2.5424 8.61415C3.31817 5.08957 5.46147 2.77118 8.88132 1.60661C9.2448 1.48283 9.62375 1.40452 9.99299 1.29655C10.0698 1.27407 10.1481 1.22568 10.2036 1.16814C10.3187 1.04894 10.4295 0.922824 10.5232 0.78673C10.8742 0.276997 11.3927 0.0599727 11.9768 0.00541291C12.4645 -0.0401481 12.883 0.208131 13.2221 0.515916C13.4237 0.698875 13.6003 0.712443 13.8309 0.696167C14.0548 0.680372 14.2905 0.652017 14.5038 0.701981C15.0417 0.827993 15.3213 1.24882 15.5209 1.7171C15.6183 1.9458 15.7571 2.08242 15.9759 2.20759C18.6877 3.75905 20.4186 5.98983 20.8064 9.14847C20.9731 10.5067 20.9186 11.8466 20.5309 13.1624C20.4306 13.5027 20.2643 13.8236 20.1313 14.1546C20.097 14.2402 20.0737 14.3302 20.0229 14.4879C20.4322 14.3103 20.7794 14.1608 21.1256 14.0091C21.3098 13.9283 21.4918 13.8426 21.6757 13.761C22.4977 13.3959 23.2103 13.8282 23.2766 14.7229C23.3307 15.4523 23.0617 16.0932 22.7246 16.7083C22.131 17.7912 21.3572 18.7228 20.2399 19.3012C19.8689 19.4932 19.4337 19.5702 19.0204 19.6693C18.8796 19.7031 18.792 19.735 18.7253 19.8712C18.3026 20.7345 17.7026 21.4518 16.9007 21.9924C16.7512 22.0932 16.5771 22.1577 16.3957 22.2171C16.3697 20.9821 15.8373 20.0587 14.7719 19.4825C13.1005 18.5786 11.3534 18.4709 9.58258 19.16C8.35959 19.6358 7.51971 20.4849 7.24508 21.8056C7.20116 22.0168 7.18691 22.2341 7.15894 22.4486Z"
        fill="#65C7FF" />
    <path
        d="M7.16815 22.4642C7.18691 22.2341 7.20116 22.0168 7.24508 21.8056C7.51971 20.4849 8.35959 19.6358 9.58258 19.16C11.3534 18.4709 13.1005 18.5786 14.7719 19.4825C15.8373 20.0587 16.4176 20.9705 16.4239 22.2078C16.2782 22.3484 16.0857 22.4764 15.9099 22.6082C15.3716 22.778 14.8704 22.9572 14.3556 23.0799C13.875 23.1944 13.3799 23.2489 12.8912 23.3298C12.0917 23.3145 11.2922 23.2992 10.4462 23.2809C9.3678 23.1958 8.3551 23.0273 7.39649 22.616C7.32345 22.5706 7.25041 22.5252 7.16815 22.4642Z"
        fill="#65C7FF" />
    <path
        d="M7.42448 22.622C8.39863 23.0209 9.3678 23.1958 10.4231 23.2831C10.3465 23.4111 10.2713 23.5796 10.1422 23.6492C9.54089 23.9731 8.8882 24.0511 8.21438 23.9707C7.94573 23.9386 7.66999 23.9252 7.41281 23.8509C7.20995 23.7922 7.00759 23.6801 6.84608 23.5437C6.59364 23.3304 6.62095 23.0542 6.89669 22.8659C7.03809 22.7693 7.25177 22.7081 7.42448 22.622Z"
        fill="#65C7FF" />
    <path
        d="M12.8912 23.3298C13.3751 23.2308 13.875 23.1944 14.3556 23.0799C14.8704 22.9572 15.3716 22.778 15.8937 22.6212C16.0814 22.7017 16.2677 22.7648 16.4239 22.8715C16.6976 23.0586 16.7169 23.3045 16.467 23.5229C16.32 23.6513 16.1384 23.7602 15.9535 23.8224C15.1373 24.0973 14.2434 23.9835 13.5052 23.7937C13.2808 23.7204 13.0962 23.4941 12.8912 23.3298Z"
        fill="#65C7FF" />
</svg>