<svg width="104" height="24" viewBox="0 0 104 24" fill="none" xmlns="http://www.w3.org/2000/svg">
<path d="M7.15894 22.4486C6.01326 21.8842 5.15276 21.032 4.58148 19.8967C4.50611 19.7469 4.42803 19.6696 4.2579 19.6523C2.62308 19.4855 1.66636 18.3914 0.823917 17.149C0.423268 16.5581 0.126835 15.9201 0.0266174 15.2069C0.00132109 15.0269 -0.00822403 14.8403 0.0080212 14.6596C0.0701957 13.9683 0.567565 13.5681 1.31244 13.663C1.65918 13.7071 1.99642 13.8528 2.32799 13.9784C2.61648 14.0878 2.89094 14.2337 3.22421 14.3878C3.20892 14.2698 3.21489 14.2245 3.19714 14.1922C2.7561 13.3874 2.58636 12.5084 2.49566 11.6113C2.39454 10.6113 2.32476 9.60295 2.5424 8.61415C3.31817 5.08957 5.46147 2.77118 8.88132 1.60661C9.2448 1.48283 9.62375 1.40452 9.99299 1.29655C10.0698 1.27407 10.1481 1.22568 10.2036 1.16814C10.3187 1.04894 10.4295 0.922824 10.5232 0.78673C10.8742 0.276997 11.3927 0.0599727 11.9768 0.00541291C12.4645 -0.0401481 12.883 0.208131 13.2221 0.515916C13.4237 0.698875 13.6003 0.712443 13.8309 0.696167C14.0548 0.680372 14.2905 0.652017 14.5038 0.701981C15.0417 0.827993 15.3213 1.24882 15.5209 1.7171C15.6183 1.9458 15.7571 2.08242 15.9759 2.20759C18.6877 3.75905 20.4186 5.98983 20.8064 9.14847C20.9731 10.5067 20.9186 11.8466 20.5309 13.1624C20.4306 13.5027 20.2643 13.8236 20.1313 14.1546C20.097 14.2402 20.0737 14.3302 20.0229 14.4879C20.4322 14.3103 20.7794 14.1608 21.1256 14.0091C21.3098 13.9283 21.4918 13.8426 21.6757 13.761C22.4977 13.3959 23.2103 13.8282 23.2766 14.7229C23.3307 15.4523 23.0617 16.0932 22.7246 16.7083C22.131 17.7912 21.3572 18.7228 20.2399 19.3012C19.8689 19.4932 19.4337 19.5702 19.0204 19.6693C18.8796 19.7031 18.792 19.735 18.7253 19.8712C18.3026 20.7345 17.7026 21.4518 16.9007 21.9924C16.7512 22.0932 16.5771 22.1577 16.3957 22.2171C16.3697 20.9821 15.8373 20.0587 14.7719 19.4825C13.1005 18.5786 11.3534 18.4709 9.58258 19.16C8.35959 19.6358 7.51971 20.4849 7.24508 21.8056C7.20116 22.0168 7.18691 22.2341 7.15894 22.4486ZM13.0848 15.1995C13.1874 15.151 13.2914 15.1053 13.3921 15.0534C13.555 14.9695 13.6211 14.8546 13.598 14.6536C13.4989 13.7915 12.7632 13.0859 11.8778 13.0288C10.9852 12.9711 10.1549 13.5808 9.95296 14.4421C9.85136 14.8754 9.87932 14.9298 10.2904 15.1187C10.3528 15.1474 10.4099 15.1875 10.4733 15.2595C10.7515 15.7896 11.2035 16.0566 11.7924 16.0428C12.3686 16.0292 12.8081 15.7586 13.0848 15.1995ZM8.74105 12.4803C9.84923 12.1002 10.5296 11.3408 10.6261 10.1761C10.7759 8.36724 9.30818 6.99621 7.48419 7.20183C6.38123 7.32616 5.66113 7.97573 5.27925 8.97426C4.89678 9.97431 5.05459 10.9288 5.78679 11.7249C6.57903 12.5861 7.58817 12.7635 8.74105 12.4803ZM15.6621 7.19394C13.8424 7.14813 12.4706 8.96597 12.9565 10.6818C13.3224 11.9744 14.7447 12.8283 16.1323 12.5747C17.4802 12.3283 18.458 11.164 18.4049 9.86871C18.3433 8.36613 17.2399 7.27009 15.6621 7.19394Z" fill="#65C7FF"/>
<path d="M7.16815 22.4642C7.18691 22.2341 7.20116 22.0168 7.24508 21.8056C7.51971 20.4849 8.35959 19.6358 9.58258 19.16C11.3534 18.4709 13.1005 18.5786 14.7719 19.4825C15.8373 20.0587 16.4176 20.9705 16.4239 22.2078C16.2782 22.3484 16.0857 22.4764 15.9099 22.6082C15.3716 22.778 14.8704 22.9572 14.3556 23.0799C13.875 23.1944 13.3799 23.2489 12.8912 23.3298C12.0917 23.3145 11.2922 23.2992 10.4462 23.2809C9.3678 23.1958 8.3551 23.0273 7.39649 22.616C7.32345 22.5706 7.25041 22.5252 7.16815 22.4642Z" fill="#65C7FF"/>
<path d="M7.42448 22.622C8.39863 23.0209 9.3678 23.1958 10.4231 23.2831C10.3465 23.4111 10.2713 23.5796 10.1422 23.6492C9.54089 23.9731 8.8882 24.0511 8.21438 23.9707C7.94573 23.9386 7.66999 23.9252 7.41281 23.8509C7.20995 23.7922 7.00759 23.6801 6.84608 23.5437C6.59364 23.3304 6.62095 23.0542 6.89669 22.8659C7.03809 22.7693 7.25177 22.7081 7.42448 22.622Z" fill="#65C7FF"/>
<path d="M12.8912 23.3298C13.3751 23.2308 13.875 23.1944 14.3556 23.0799C14.8704 22.9572 15.3716 22.778 15.8937 22.6212C16.0814 22.7017 16.2677 22.7648 16.4239 22.8715C16.6976 23.0586 16.7169 23.3045 16.467 23.5229C16.32 23.6513 16.1384 23.7602 15.9535 23.8224C15.1373 24.0973 14.2434 23.9835 13.5052 23.7937C13.2808 23.7204 13.0962 23.4941 12.8912 23.3298Z" fill="#65C7FF"/>
<path d="M8.72043 12.4858C7.58817 12.7635 6.57903 12.5861 5.78679 11.7249C5.05459 10.9288 4.89678 9.97431 5.27925 8.97426C5.66113 7.97573 6.38123 7.32616 7.48419 7.20183C9.30818 6.99621 10.7759 8.36724 10.6261 10.1761C10.5296 11.3408 9.84923 12.1002 8.72043 12.4858ZM6.83845 8.96226C6.41743 9.65039 6.45406 10.4377 6.93363 11.0081C7.3905 11.5516 8.15672 11.7268 8.87364 11.4518C9.45061 11.2305 9.88404 10.6354 9.86553 10.0699C9.60091 10.2554 9.40577 10.5396 9.03547 10.526C8.66924 10.5126 8.39229 10.3724 8.22046 10.0495C7.88901 9.42686 8.1898 8.87414 9.06011 8.49774C8.36553 8.01157 7.44605 8.19124 6.83845 8.96226Z" fill="#65C7FF"/>
<path d="M15.6875 7.1943C17.2399 7.27009 18.3433 8.36613 18.4049 9.86871C18.458 11.164 17.4802 12.3283 16.1323 12.5747C14.7447 12.8283 13.3224 11.9744 12.9565 10.6818C12.4706 8.96597 13.8425 7.14813 15.6875 7.1943ZM16.9452 10.0659C16.7542 10.2535 16.592 10.4761 16.2891 10.5079C15.8447 10.5545 15.4719 10.3368 15.3163 9.92282C15.1392 9.4516 15.2862 8.97054 15.7072 8.71351C15.8727 8.6125 16.0641 8.55356 16.239 8.47748C15.5423 7.93067 14.4141 8.17185 13.9005 8.98614C13.5209 9.58788 13.5363 10.3439 13.9396 10.9032C14.3405 11.4592 15.057 11.7167 15.7284 11.5459C16.4142 11.3716 16.9327 10.8069 17.0257 10.127C17.0293 10.1011 16.9893 10.0693 16.9452 10.0659Z" fill="#65C7FF"/>
<path d="M10.4695 15.2223C10.4099 15.1875 10.3528 15.1474 10.2904 15.1187C9.87932 14.9298 9.85136 14.8754 9.95296 14.4421C10.1549 13.5808 10.9852 12.9711 11.8778 13.0288C12.7632 13.0859 13.4989 13.7915 13.598 14.6536C13.6211 14.8546 13.555 14.9695 13.3921 15.0534C13.2914 15.1053 13.1874 15.151 13.0485 15.212C12.6798 15.2755 12.3465 15.3734 12.0154 15.3665C11.4993 15.3558 10.9847 15.274 10.4695 15.2223Z" fill="#65C7FF"/>
<path d="M10.3672 15.1599C10.8805 15.193 11.4993 15.3558 12.0154 15.3665C12.3465 15.3734 12.7319 15.2532 13.0848 15.1995C12.8601 15.7363 12.5848 15.9988 11.7924 16.0428C11.1894 16.0762 10.6473 15.7086 10.3672 15.1599Z" fill="#65C7FF"/>
<path d="M6.84727 8.94534C7.44605 8.19124 8.36553 8.01157 9.06011 8.49774C8.1898 8.87414 7.88901 9.42686 8.22046 10.0495C8.39229 10.3724 8.66924 10.5126 9.03547 10.526C9.40577 10.5396 9.60091 10.2554 9.86553 10.0699C9.88404 10.6354 9.45061 11.2305 8.87364 11.4518C8.15672 11.7268 7.3905 11.5516 6.93363 11.0081C6.45406 10.4377 6.41743 9.65039 6.84727 8.94534Z" fill="#65C7FF"/>
<path d="M16.9574 10.0531C16.9893 10.0693 17.0293 10.1011 17.0257 10.127C16.9327 10.8069 16.4142 11.3716 15.7284 11.5459C15.057 11.7167 14.3405 11.4592 13.9396 10.9032C13.5363 10.3439 13.5209 9.58788 13.9005 8.98614C14.4141 8.17185 15.5423 7.93067 16.239 8.47748C16.0641 8.55356 15.8727 8.6125 15.7072 8.71351C15.2862 8.97054 15.1392 9.4516 15.3163 9.92282C15.4719 10.3368 15.8447 10.5545 16.2891 10.5079C16.592 10.4761 16.7542 10.2535 16.9574 10.0531Z" fill="#65C7FF"/>
<path d="M37.4629 21.9448C36.764 21.9448 36.2215 21.7517 35.8353 21.3655C35.4675 20.9793 35.2836 20.4184 35.2836 19.6828V4.48276C35.2836 3.76552 35.4767 3.21379 35.8629 2.82759C36.2491 2.44138 36.8008 2.24828 37.5181 2.24828H46.9525C47.5043 2.24828 47.9181 2.3954 48.1939 2.68966C48.4882 2.96552 48.6353 3.37012 48.6353 3.90345C48.6353 4.45517 48.4882 4.87816 48.1939 5.17241C47.9181 5.44828 47.5043 5.58621 46.9525 5.58621H39.5594V10.331H46.3457C46.8974 10.331 47.3204 10.4782 47.6146 10.7724C47.9089 11.0483 48.056 11.4529 48.056 11.9862C48.056 12.5195 47.9089 12.9333 47.6146 13.2276C47.3204 13.5218 46.8974 13.669 46.3457 13.669H39.5594V19.6828C39.5594 21.1908 38.8606 21.9448 37.4629 21.9448Z" fill="#65C7FF"/>
<path d="M56.645 22C55.0082 22 53.7852 21.5494 52.976 20.6483C52.1668 19.7287 51.7622 18.3678 51.7622 16.5655V4.12414C51.7622 3.42529 51.937 2.90115 52.2864 2.55173C52.6542 2.18391 53.1783 2 53.8588 2C54.5209 2 55.0266 2.18391 55.376 2.55173C55.7439 2.90115 55.9278 3.42529 55.9278 4.12414V16.4C55.9278 17.154 56.0841 17.7149 56.3967 18.0828C56.7278 18.4322 57.16 18.6069 57.6933 18.6069C57.8404 18.6069 57.9783 18.5977 58.1071 18.5793C58.2358 18.5609 58.3737 18.5517 58.5209 18.5517C58.8151 18.5149 59.0174 18.6069 59.1278 18.8276C59.2565 19.0299 59.3209 19.4437 59.3209 20.069C59.3209 20.6207 59.2105 21.0437 58.9898 21.3379C58.7691 21.6138 58.4289 21.7977 57.9691 21.8897C57.7852 21.908 57.5737 21.9264 57.3347 21.9448C57.0956 21.9816 56.8657 22 56.645 22Z" fill="#65C7FF"/>
<path d="M67.3243 22C65.8714 22 64.6025 21.7149 63.5174 21.1448C62.4508 20.5747 61.6232 19.7563 61.0347 18.6897C60.4462 17.623 60.1519 16.3632 60.1519 14.9103C60.1519 13.8253 60.3174 12.8506 60.6485 11.9862C60.9795 11.1218 61.4577 10.3862 62.0829 9.77931C62.7266 9.15402 63.4898 8.68506 64.3726 8.37241C65.2554 8.04138 66.2393 7.87586 67.3243 7.87586C68.7772 7.87586 70.037 8.16092 71.1036 8.73103C72.1887 9.30115 73.0255 10.1103 73.614 11.1586C74.2209 12.2069 74.5243 13.4575 74.5243 14.9103C74.5243 16.0138 74.3496 16.9977 74.0002 17.8621C73.6691 18.7264 73.191 19.4713 72.5657 20.0966C71.9404 20.7218 71.1772 21.2 70.276 21.531C69.3933 21.8437 68.4094 22 67.3243 22ZM67.3243 18.8828C67.9312 18.8828 68.4553 18.7356 68.8967 18.4414C69.3381 18.1471 69.6875 17.7149 69.945 17.1448C70.2025 16.5563 70.3312 15.8115 70.3312 14.9103C70.3312 13.5678 70.0554 12.5839 69.5036 11.9586C68.9519 11.3149 68.2255 10.9931 67.3243 10.9931C66.7358 10.9931 66.2117 11.131 65.7519 11.4069C65.3105 11.6828 64.9611 12.1149 64.7036 12.7034C64.4645 13.2736 64.345 14.0092 64.345 14.9103C64.345 16.2529 64.6209 17.2552 65.1726 17.9172C65.7243 18.5609 66.4416 18.8828 67.3243 18.8828Z" fill="#65C7FF"/>
<path d="M83.6517 22C82.1804 22 80.8931 21.7149 79.7896 21.1448C78.7046 20.5563 77.8678 19.7287 77.2793 18.6621C76.6908 17.5954 76.3965 16.3356 76.3965 14.8828C76.3965 13.7977 76.562 12.823 76.8931 11.9586C77.2241 11.0943 77.7023 10.3586 78.3276 9.75172C78.9712 9.14483 79.7436 8.68506 80.6448 8.37241C81.5459 8.04138 82.5482 7.87586 83.6517 7.87586C84.2218 7.87586 84.8287 7.94943 85.4724 8.09655C86.1161 8.22529 86.7505 8.45517 87.3758 8.78621C87.7436 8.95172 87.9919 9.1908 88.1207 9.50345C88.2678 9.7977 88.323 10.1103 88.2862 10.4414C88.2494 10.754 88.1299 11.0391 87.9276 11.2966C87.7436 11.5356 87.5046 11.7011 87.2103 11.7931C86.9161 11.8667 86.585 11.8115 86.2172 11.6276C85.8678 11.4253 85.5 11.2782 85.1138 11.1862C84.7459 11.0943 84.3965 11.0483 84.0655 11.0483C83.5138 11.0483 83.0264 11.1402 82.6034 11.3241C82.1804 11.4897 81.8218 11.7379 81.5275 12.069C81.2517 12.3816 81.031 12.777 80.8655 13.2552C80.7184 13.7333 80.6448 14.2851 80.6448 14.9103C80.6448 16.1241 80.939 17.0805 81.5275 17.7793C82.1344 18.4598 82.9804 18.8 84.0655 18.8C84.3965 18.8 84.7459 18.7632 85.1138 18.6897C85.4816 18.5977 85.8494 18.4506 86.2172 18.2483C86.585 18.0644 86.9161 18.0184 87.2103 18.1103C87.5046 18.2023 87.7344 18.377 87.9 18.6345C88.0839 18.8736 88.185 19.1586 88.2034 19.4897C88.2402 19.8023 88.185 20.1149 88.0379 20.4276C87.9092 20.7218 87.6701 20.9517 87.3207 21.1172C86.6954 21.4299 86.0701 21.6506 85.4448 21.7793C84.8195 21.9264 84.2218 22 83.6517 22Z" fill="#65C7FF"/>
<path d="M92.3286 21.9448C91.6482 21.9448 91.124 21.7609 90.7562 21.3931C90.4068 21.0253 90.2321 20.5011 90.2321 19.8207V4.12414C90.2321 3.42529 90.4068 2.90115 90.7562 2.55173C91.124 2.18391 91.6482 2 92.3286 2C92.9907 2 93.4964 2.18391 93.8459 2.55173C94.2137 2.90115 94.3976 3.42529 94.3976 4.12414V13.7517H94.4528L98.4528 9.31034C98.8574 8.85057 99.2252 8.51034 99.5562 8.28965C99.9056 8.05057 100.365 7.93103 100.936 7.93103C101.506 7.93103 101.938 8.07816 102.232 8.37241C102.545 8.66667 102.701 9.02529 102.701 9.44828C102.719 9.85287 102.545 10.2667 102.177 10.6897L97.9562 15.4069V13.8345L102.646 19.2414C102.995 19.6644 103.142 20.0874 103.087 20.5103C103.05 20.9333 102.867 21.2828 102.536 21.5586C102.204 21.8161 101.782 21.9448 101.267 21.9448C100.641 21.9448 100.136 21.8253 99.7493 21.5862C99.3815 21.3471 99.0045 20.9793 98.6183 20.4828L94.4528 15.8483H94.3976V19.8207C94.3976 21.2368 93.7079 21.9448 92.3286 21.9448Z" fill="#65C7FF"/>
</svg>
