<svg preserveAspectRatio="none" width="100%" height="100%" overflow="visible" style="display: block;" viewBox="0 0 24 24" fill="none" xmlns="http://www.w3.org/2000/svg">
<g id="Group">
<g id="Vector">
</g>
<path id="Vector_2" fill-rule="evenodd" clip-rule="evenodd" d="M16.06 10.94C16.3409 11.2213 16.4987 11.6025 16.4987 12C16.4987 12.3975 16.3409 12.7787 16.06 13.06L10.404 18.718C10.1226 18.9993 9.741 19.1572 9.34315 19.1571C8.94529 19.157 8.56376 18.9989 8.2825 18.7175C8.00124 18.4361 7.84328 18.0545 7.84337 17.6566C7.84347 17.2588 8.00161 16.8773 8.283 16.596L12.879 12L8.283 7.404C8.00963 7.12123 7.85825 6.74239 7.86149 6.34909C7.86472 5.9558 8.02229 5.5795 8.30027 5.30126C8.57826 5.02301 8.9544 4.86508 9.3477 4.86148C9.74099 4.85788 10.12 5.00889 10.403 5.282L16.061 10.939L16.06 10.94Z" fill="var(--fill-0, #1B1B1B)"/>
</g>
</svg>
